<?xml version="1.0" encoding="UTF-8"?>
<!-- Created with Inkscape by VulcanSphere (https://www.inkscape.org/ and https://vulcansphere.com) -->
<svg width="342.14" height="75.062" version="1.1" viewBox="0 0 342.14 75.062" xmlns="http://www.w3.org/2000/svg" xmlns:cc="http://creativecommons.org/ns#" xmlns:dc="http://purl.org/dc/elements/1.1/" xmlns:rdf="http://www.w3.org/1999/02/22-rdf-syntax-ns#">
 <title>Chainsaw Man (International wordmark)</title>
 <desc>Dark fantasy animanga by Tatsuki Fujimoto, this variant of logo is used internationally</desc>
 <g transform="translate(-17.292 373.61)">
  <path d="m231.94-298.76c9e-5 -0.11238 1.2252-16.815 2.7225-37.117s2.7231-37.066 2.724-37.253c1e-3 -0.26283 1.4802-0.34052 6.4818-0.34052h6.4801l2.5532 10.692c1.4043 5.8809 2.6687 11.226 2.8099 11.877 0.14118 0.65148 0.35174 1.0805 0.46791 0.95347 0.11618-0.12707 1.4746-5.4717 3.0186-11.877l2.8074-11.646h7.723l53.881-0.13626 7.3553 0.1522 4.598 18.04c2.5289 9.9219 4.7011 18.224 4.8272 18.448 0.12603 0.22475 0.23287-7.8968 0.23742-18.048l8e-3 -18.456h18.797v0.74915c0 0.83736-1.4269 14.049-1.4937 15.671-0.0818 1.9881-4.6974 47.943-4.6974 47.943l-0.99248 10.563-11.98-0.1464-5.0754-18.041c-2.7915-9.9223-5.1604-18.126-5.2642-18.229-0.10387-0.10385-0.18884 8.0451-0.18884 18.109v18.298h-5.857c-4.4497 0-5.857-0.0804-5.857-0.33471 0-0.18409-2.6357-16.837-5.857-37.006-3.2226-20.169-5.8582-36.874-5.8582-37.123 0-0.40282 0.48927-0.45202 4.4949-0.45202l-24.506 0.1362-5.6412 37.185c-3.1026 20.452-5.6489 37.277-5.6584 37.39-0.01 0.11237-2.7134 0.20431-6.0086 0.20431h-5.9913l-0.14-37.186-3.233 11.305c-1.7781 6.218-3.3105 11.45-3.4053 11.627-0.0948 0.17669-1.6434-4.841-3.4413-11.151l-3.269-11.472-0.14 36.875h-8.7155c-4.7935 0-8.7154-0.0919-8.7154-0.20431zm124.91-47.061-1.2819 12.94c-0.70507 7.117-1.2897 13.277-1.2991 13.689-0.0894 0.0961 2.581-26.629 2.581-26.629zm-79.693 46.903c0-0.27664 10.175-66.214 11.326-73.395l0.18554-1.1578h15.67l0.15903 0.88536c0.43018 2.395 11.343 73.178 11.343 73.573 0 0.41498-0.59041 0.45718-6.3967 0.45718h-6.3967l-0.13248-0.61294c-0.0729-0.33712-0.38689-2.7582-0.69786-5.3803-0.31094-2.622-0.63117-5.1045-0.71161-5.5165l-0.14624-0.74916h-4.8819c-2.685 0-4.8876 0.0919-4.8945 0.20432-7e-3 0.11237-0.34635 2.84-0.7543 6.0613l-0.74172 5.857-6.4648 0.073c-5.319 0.0601-6.4648 7e-3 -6.4648-0.29913zm22.053-29.672c-0.0603-1.6244-2.6664-20.676-2.7856-20.363-0.0857 0.22475-0.66193 4.5766-1.2805 9.6709-0.61856 5.0942-1.1934 9.6607-1.2775 10.148l-0.15285 0.88536h2.7545c2.0287 0 2.7512-0.0897 2.7419-0.34052zm-273.5 15.341c-4.1269-2.1999-7.103-8.9315-8.1922-18.53-0.4651-4.0985-0.18954-13.173 0.5217-17.181 1.2956-7.3001 3.8001-12.536 7.0151-14.665l1.2937-0.85692h12.71v16.311l-1.8388-0.85593c-1.5376-0.7157-2.1766-0.85795-3.9007-0.86827-1.7777-0.0107-2.21 0.0856-3.1366 0.69806-2.2929 1.5157-3.4698 5.0631-3.4701 10.459-2.73e-4 6.7186 1.6391 10.403 5.0361 11.318 1.7226 0.46386 3.0139 0.1755 6.9737-1.5573 0.27445-0.1201 0.32992 1.5057 0.27242 7.9844l-0.0722 8.1352-6.1294 0.0588c-5.5287 0.0531-6.2229 9e-3 -7.0829-0.44944zm15.8-25.489v-25.471h8.9899v18.252h5.4484v-18.252h16.106l-0.17246 1.1578c-0.09485 0.63678-1.792 12.068-3.7715 25.403l-3.599 24.245-8.5632 0.15v-18.538h-5.4484v18.525h-8.9899zm24.437 24.858c0.06386-0.33712 1.9213-11.769 4.1276-25.403l4.0115-24.79 10.18-0.1482 0.13583 0.61893c0.21409 0.9755 8.0501 49.663 8.0501 50.018 0 0.22907-1.2478 0.31769-4.4733 0.31769h-4.4733l-0.14922-0.74916c-0.08207-0.41203-0.28141-2.0363-0.44297-3.6096-0.46799-4.5569-0.03423-4.0863-3.7661-4.0863h-3.2149l-0.33299 3.3371c-0.18314 1.8354-0.40269 3.7356-0.48789 4.2225l-0.15489 0.88537h-9.1261zm15.064-20.342c0-0.28777-0.36777-3.7913-0.81726-7.7856s-0.81726-7.3956-0.81726-7.5586c0-0.16291-0.06902-0.22718-0.15337-0.14283-0.08436 0.0843-0.55112 3.7212-1.0373 8.0818l-0.88388 7.9284h1.8545c1.6474 0 1.8545-0.0584 1.8545-0.52323zm12.804 20.817c0-0.29896-6.2633-49.091-6.4081-49.919l-0.15465-0.88536h15.28v50.942h-4.3587c-2.3973 0-4.3587-0.062-4.3587-0.13772zm10.624-25.339v-25.477l10.725 0.1478 2.8937 11.169c1.5915 6.1431 2.9689 11.353 3.0609 11.578 0.092 0.22474 0.17689-4.832 0.18871-11.237l0.0215-11.646h5.0398c3.089 0 5.0398 0.10272 5.0398 0.26537 0 0.14596 1.1646 11.511 2.588 25.256s2.588 25.087 2.588 25.206c0 0.11842-3.4277 0.21532-7.6172 0.21532h-7.6172l-0.4248-1.4302c-0.23365-0.78661-1.8014-6.2725-3.4839-12.191l-3.0591-10.761-0.1418 24.382h-9.8015zm35.687 25.262c0-0.11815-0.49326-3.9359-1.0962-8.4839-0.60288-4.548-1.0626-8.3007-1.0216-8.3393s2.4925-0.55462 5.4477-1.1468l5.3732-1.0766 2.527 4.0382c1.3898 2.221 2.5668 3.8569 2.6155 3.6352 0.0797-0.36289-0.54899-6.3512-0.93561-8.9116l-0.15426-1.0216h-15.47l-0.13274-0.61295c-0.18402-0.84967-3.6915-27.788-3.6915-28.352 0-0.42175 1.1647-0.4566 15.261-0.4566h15.261l-0.1464 12.39-7.0829 1.2686c-3.8956 0.69771-7.1724 1.2141-7.2818 1.1475-0.10937-0.0666-1.562-1.8009-3.228-3.8541s-3.1276-3.7699-3.2478-3.815c-0.12021-0.045 0.19438 1.5486 0.69911 3.5415 0.50473 1.9928 1.053 4.267 1.2185 5.0536l0.3008 1.4302h18.758v33.78h-11.986c-6.5926 0-11.986-0.0967-11.986-0.21483zm26.97-25.256v-25.471h9.2623c6.5887 0 9.2623 0.087 9.2623 0.30149 0 0.3538 7.8207 48.787 8.0562 49.892l0.15972 0.74916h-9.2309l-0.3195-2.9285c-0.17573-1.6107-0.39221-3.5108-0.48108-4.2225l-0.16157-1.294h-6.3982l-0.15371 1.0216c-0.0845 0.56187-0.30333 2.462-0.48619 4.2225l-0.33249 3.2009h-9.1768zm15.165 4.1544c-0.0834-0.48695-0.48361-4.0114-0.88937-7.8321s-0.81513-7.0368-0.90971-7.1468c-0.0946-0.11008-0.51262 2.9546-0.92898 6.8105-0.41635 3.8558-0.82618 7.4703-0.91074 8.0322l-0.15372 1.0216h3.9442zm13.712 21.107c0-0.27132-7.0225-48.995-7.2041-49.984l-0.1376-0.74915h6.1226c3.3674 0 6.1279 0.0306 6.1343 0.0681 6e-3 0.0375 0.48029 3.378 1.0531 7.4234s1.1112 7.1714 1.1964 6.9467c0.15221-0.40129 2.9149-13.932 2.9149-14.276 0-0.0967 1.9863-0.14213 4.414-0.10095l4.414 0.0749 1.1688 5.857c1.857 9.3062 1.7714 8.9538 1.9867 8.1726 0.10323-0.37457 0.59911-3.7151 1.102-7.4234l0.91425-6.7424h7.3022c6.9429 0 7.3022 0.025 7.3022 0.50777 0 0.27927-1.1645 11.527-2.5877 24.994-1.4232 13.468-2.5878 24.701-2.588 24.963-2.3e-4 0.44341-0.57033 0.47674-8.1562 0.47674h-8.1559l-0.15729-1.1578c-0.0865-0.63678-0.64995-6.3678-1.2521-12.736-0.60215-6.3678-1.1367-11.7-1.1879-11.85-0.0512-0.14983-0.16338 0.0341-0.24928 0.40863-0.15827 0.69017-2.3765 23.98-2.3676 24.858 4e-3 0.43973-0.46032 0.47674-5.9884 0.47674-3.2963 0-5.9932-0.0944-5.9932-0.20971z" fill="#edab18" stroke-width=".27242"/>
 </g>
 <metadata>
  <rdf:RDF>
   <cc:Work rdf:about="">
    <dc:title>Chainsaw Man (International wordmark)</dc:title>
   </cc:Work>
  </rdf:RDF>
 </metadata>
</svg>
