<?xml version="1.0" encoding="UTF-8" standalone="no"?>
<!-- Created with Inkscape (http://www.inkscape.org/) -->
<svg
   xmlns:svg="http://www.w3.org/2000/svg"
   xmlns="http://www.w3.org/2000/svg"
   xmlns:xlink="http://www.w3.org/1999/xlink"
   version="1.0"
   width="720"
   height="320"
   id="svg2160">
  <defs
     id="defs2162">
    <linearGradient
       id="linearGradient3355">
      <stop
         style="stop-color:#ff7701;stop-opacity:1"
         offset="0"
         id="stop3357" />
      <stop
         style="stop-color:#cb0000;stop-opacity:1"
         offset="1"
         id="stop3359" />
    </linearGradient>
    <linearGradient
       x1="476.83499"
       y1="187.63101"
       x2="476.83499"
       y2="381.84009"
       id="linearGradient3361"
       xlink:href="#linearGradient3355"
       gradientUnits="userSpaceOnUse" />
  </defs>
  <g
     transform="translate(0,-128)"
     style="display:inline"
     id="layer7">
    <rect
       width="720"
       height="320"
       x="0"
       y="128"
       style="opacity:1;fill:#000000;fill-opacity:1;stroke:none;stroke-width:25;stroke-linecap:butt;stroke-miterlimit:4;stroke-dasharray:none;stroke-opacity:1"
       id="rect3243" />
    <g
       transform="translate(-9.6584465,6.15625)"
       style="display:inline"
       id="g3241">
      <path
         d="M 134.64492,241.00816 L 134.64492,223.62512 L 73.067701,223.62512 L 73.067701,228.19185 L 76.897863,228.19185 C 78.50378,228.18635 80.507053,228.33729 80.507053,231.80104 L 80.507053,277.10007 L 73.509643,277.10007 L 73.509643,281.6668 L 134.64492,281.6668 C 134.92948,276.76011 135.23971,271.86884 137.44388,268.11392 L 134.4976,266.34615 C 131.90016,268.9648 130.84861,272.74287 129.78356,276.51081 L 97.374497,276.51081 L 97.374497,255.44493 L 118.29307,255.44493 C 119.99308,254.98941 121.80216,257.19842 121.80216,261.96479 L 126.54265,261.96479 L 126.54265,243.5125 L 121.82861,243.5125 C 121.82861,246.32464 121.51871,249.94426 118.54048,249.94426 L 97.374497,249.94426 L 97.374497,228.19185 L 126.54265,228.19185 C 129.33033,228.19185 131.31166,231.19764 131.31166,240.94753 L 134.64492,241.00816 z "
         style="fill:#ffffff;fill-rule:evenodd;stroke:none;stroke-width:1px;stroke-linecap:butt;stroke-linejoin:miter;stroke-opacity:1"
         id="path2269" />
      <path
         d="M 207.5,222.875 L 174.58333,222.875 L 174.58333,227.45833 L 179.16667,227.35416 C 180.98108,227.24863 180.76808,228.74006 180.52083,229.95833 L 164.27083,272.5625 L 145.20833,227.45833 L 151.875,227.45833 L 151.875,222.875 L 135.52084,222.875 L 135.52084,227.45833 L 139.79167,227.45833 L 162.39584,280.79167 L 181.66667,280.79167 L 202.70833,227.45833 L 207.70833,227.45833 L 207.5,222.875 z "
         style="fill:#ffffff;fill-opacity:1;fill-rule:evenodd;stroke:none;stroke-width:1px;stroke-linecap:butt;stroke-linejoin:miter;stroke-opacity:1"
         id="path3275" />
      <path
         d="M 321.92708,222.26042 L 302.4375,222.15625 L 302.47917,225.875 L 307.15625,225.96875 C 308.34859,226.13021 309.64694,227.11983 309.65625,229.53125 L 309.5,272.53125 L 288.4375,222.4375 L 253.8125,222.15625 L 253.8125,226.4375 L 257.9375,226.4375 C 260.02909,226.35006 260.24416,227.22375 260.3125,228.78125 L 260.4375,269.71875 C 260.70028,274.95537 256.84982,276.96105 255,272.96875 L 234.6875,222.875 L 215.4375,222.875 L 192.8125,276.21875 L 188.5625,276.21875 L 188.5625,280.78125 L 208.28125,280.78125 L 208.28125,276.21875 C 208.28125,276.21875 208.14908,276.21875 206.34375,276.21875 C 204.97863,276.21875 200.15824,274.46018 201.09375,270.96875 C 203.93348,263.83393 217.31251,231.09375 217.3125,231.09375 L 234,271.78125 C 234.39368,275.57983 231.49573,275.43197 228.66667,275.48958 L 228.66667,280.05208 L 272.63542,279.73958 L 272.53125,275.28125 L 269.0625,275.28125 C 266.82542,275.46822 265.3423,273.64504 265.3125,270.65625 L 265.03125,230.40625 L 286.375,279.15625 L 321.71875,279 L 321.71875,274.75 L 317.3125,274.75 C 315.97289,274.93963 314.87857,274.22204 314.8125,271.65625 L 315.40625,228.9375 C 315.41194,227.10814 316.42289,225.60888 321.92708,226.02083 L 321.92708,222.26042 z "
         style="fill:#ffffff;fill-opacity:1;fill-rule:evenodd;stroke:none;stroke-width:1px;stroke-linecap:butt;stroke-linejoin:miter;stroke-opacity:1"
         id="path3285" />
      <path
         d="M 381.22314,221.20708 L 381.39572,241.59742 L 367.10627,241.4501 C 367.10627,234.31762 364.11154,227.36898 352.51479,227.36898 C 340.81387,227.36898 337.7045,233.55399 337.7045,237.32532 L 337.64349,264.57839 C 337.88105,276.94512 364.15999,276.72055 364.15999,268.26124 L 364.15999,255.59224 C 364.13968,254.53523 363.68005,253.96962 362.39223,253.91971 L 356.4818,253.88549 L 356.43865,248.96311 L 381.83766,249.03154 L 381.83766,279.01515 L 378.59676,279.01515 C 378.59676,279.01515 378.41616,270.99524 374.32466,269.73437 C 370.23315,268.4735 365.94455,273.85444 364.14581,275.44482 C 361.35668,277.91086 352.3267,280.55611 343.80232,279.38867 C 324.58001,276.75611 317.96339,264.33588 317.44256,253.68173 C 317.36124,252.01825 317.29361,246.9079 317.35735,245.69588 C 317.96957,234.05415 326.25851,221.41541 348.3974,221.41541 C 355.23554,221.41541 359.48543,221.75436 363.46657,224.76788 C 369.15644,229.07481 372.67183,222.74391 372.95568,221.18921 L 381.22314,221.20708 z "
         style="fill:#ffffff;fill-opacity:1;fill-rule:evenodd;stroke:none;stroke-width:1px;stroke-linecap:butt;stroke-linejoin:miter;stroke-opacity:1"
         id="path3290" />
      <path
         d="M 445.06159,238.50816 L 445.06159,221.12512 L 383.48437,221.12512 L 383.48437,225.69185 L 387.31453,225.69185 C 388.92045,225.68635 390.92372,225.83729 390.92372,229.30104 L 390.92372,274.60007 L 383.92631,274.60007 L 383.92631,279.1668 L 445.06159,279.1668 C 445.34615,274.26011 445.65638,269.36884 447.86055,265.61392 L 444.91427,263.84615 C 442.31683,266.4648 441.26528,270.24287 440.20023,274.01081 L 407.79116,274.01081 L 407.79116,252.94493 L 428.70974,252.94493 C 430.40975,252.48941 432.21883,254.69842 432.21883,259.46479 L 436.95932,259.46479 L 436.95932,241.0125 L 432.24528,241.0125 C 432.24528,243.82464 431.93538,247.44426 428.95715,247.44426 L 407.79116,247.44426 L 407.79116,225.69185 L 436.95932,225.69185 C 439.747,225.69185 441.72833,228.69764 441.72833,238.44753 L 445.06159,238.50816 z "
         style="fill:#ffffff;fill-rule:evenodd;stroke:none;stroke-width:1px;stroke-linecap:butt;stroke-linejoin:miter;stroke-opacity:1"
         id="path3292" />
      <path
         d="M 477.39767,220.29179 L 448.31178,220.29179 L 448.31178,224.85852 L 452.14194,224.85852 C 453.74786,224.85302 455.75113,225.00396 455.75113,228.46771 L 455.75113,273.76674 L 448.75372,273.76674 L 448.75372,278.33347 L 500.77288,278.33347 C 501.05744,273.42678 502.25156,264.41072 504.45573,260.6558 L 501.50945,258.88803 C 498.91201,261.50668 496.09269,269.40954 495.02764,273.17748 L 472.61857,273.17748 L 472.61857,224.85852 L 477.39767,224.82797 L 477.39767,220.29179 z "
         style="fill:#ffffff;fill-rule:evenodd;stroke:none;stroke-width:1px;stroke-linecap:butt;stroke-linejoin:miter;stroke-opacity:1"
         id="path3294" />
      <path
         d="M 534.26084,219.99716 L 505.17495,219.99716 L 505.17495,224.56389 L 509.00511,224.56389 C 510.61103,224.55839 512.6143,224.70933 512.6143,228.17308 L 512.51013,270.97211 C 512.6021,272.38691 512.35392,273.14906 510.52082,272.95128 L 504.67939,272.95128 L 504.67939,277.51801 L 536.71747,277.51801 L 536.57016,272.95128 L 530.21091,272.95128 C 528.93206,272.72788 528.75884,271.8411 528.85674,270.79165 L 528.85674,228.08333 C 528.72002,225.70466 528.90413,223.9142 530.41924,224.56389 L 534.26084,224.53334 L 534.26084,219.99716 z "
         style="fill:#ffffff;fill-rule:evenodd;stroke:none;stroke-width:1px;stroke-linecap:butt;stroke-linejoin:miter;stroke-opacity:1"
         id="path3296" />
      <path
         d="M 567.75,219.78125 C 548.68198,220.07588 535.34375,229.87078 535.34375,248.21875 C 535.34375,266.86131 548.68137,277.24551 567.75,277.24551 C 585.63952,277.24551 600.15627,265.68047 600.15625,248.21875 C 600.15623,232.5248 586.52339,219.48662 567.75,219.78125 z M 562.47763,224.8172 L 572.13848,224.8172 C 577.87744,224.8172 581.59375,229.73449 581.59375,235.3125 L 581.59375,261.87955 C 581.59375,265.97663 579.05593,271.34364 573.90625,271.34364 L 563.65614,271.34364 C 559.5356,271.78559 553.46431,267.45265 553.90625,260.99566 L 553.90625,235.3125 C 553.90625,232.0993 555.85481,224.8172 562.47763,224.8172 z "
         style="opacity:1;fill:#ffffff;fill-opacity:1;stroke:none;stroke-width:1.00102103;stroke-linecap:butt;stroke-miterlimit:4;stroke-dasharray:none;stroke-opacity:1"
         id="path3298" />
      <path
         d="M 666.21578,219.22172 L 646.7262,219.11755 L 646.76787,222.8363 L 651.44495,222.93005 C 652.63729,223.09151 653.93564,224.08113 653.94495,226.49255 L 653.7887,269.49255 L 632.7262,219.3988 L 598.1012,219.11755 L 598.1012,223.3988 L 602.2262,223.3988 C 604.31779,223.31136 604.53286,224.18505 604.6012,225.74255 L 604.7262,266.68005 C 604.7262,272.4793 603.68762,272.29293 597.5387,272.45088 L 597.5387,277.01338 L 616.92412,276.70088 L 616.81995,272.24255 L 613.3512,272.24255 C 611.11412,272.42952 609.6012,270.61574 609.6012,266.88098 L 609.31995,227.36755 L 630.6637,276.11755 L 666.00745,275.9613 L 666.00745,271.7113 L 661.6012,271.7113 C 660.26159,271.90093 659.16727,271.18334 659.1012,268.61755 L 659.69495,225.8988 C 659.70064,224.06944 660.71159,222.57018 666.21578,222.98213 L 666.21578,219.22172 z "
         style="fill:#ffffff;fill-opacity:1;fill-rule:evenodd;stroke:none;stroke-width:1px;stroke-linecap:butt;stroke-linejoin:miter;stroke-opacity:1"
         id="path3303" />
      <g
         style="display:inline"
         id="g3224">
        <path
           d="M 345.84375,150.59375 L 341.83926,161.66074 L 356.83926,317.13838 L 361.36162,326.99551 L 374.15625,300.15625 L 374.15625,287.58476 L 394.52237,287.58476 L 394.52237,281.84375 L 399.15625,281.84375 L 404.15625,291.84375 L 389.15625,316.84375 L 389.15625,400.15625 L 425.40625,287.58476 L 431.61612,287.58476 L 433.75,267.65625 L 373.34375,268.09375 L 374.15625,167.25 L 345.84375,150.59375 z M 161.46875,165.875 L 156.5625,170.34375 L 189.75,260.40625 L 212.5625,292.375 L 185.1875,287.25 L 176.53574,270.95976 L 168.875,268.375 L 147.65625,247.15625 L 200.71875,367 L 206.78125,344.71875 L 192.5625,307.96875 L 240.8125,312.5625 L 265.125,396.6875 L 272.0625,376.03125 L 271.8125,352.6875 L 302.4375,352.625 L 293.15625,359.5 L 285.03125,359.5 L 288.5,402.0625 L 295.8125,390.96875 L 295.59375,367.625 L 301.125,369.75 L 327.03125,342.0625 L 271.65625,342.3125 L 271.625,319.46875 L 227.625,268.6875 L 236.25,296.875 L 223.90625,294.9375 L 194.9375,203.90625 L 161.46875,165.875 z M 623.34375,172.65625 L 592.5,195.59375 L 552.09375,296.84375 L 538.34375,308.38838 L 506.43301,308.38838 L 498.34375,338.5 L 450.70088,393.31699 L 466.25,392.25 L 505.21875,360.15625 L 502.28125,356 L 515.625,348.5 L 520.625,336 L 535.40625,336 L 508.53125,396.40625 L 510.84375,398.5 L 527.71875,381.40625 L 539.375,359.96875 L 558.34375,342.25 L 555.40625,333.71875 L 596.46875,317.875 L 603.125,308.28125 L 573.75,307.25 L 564.15625,314.96875 L 560.84375,310.78125 L 578.53125,298.09375 L 626.65625,189.75 L 626.875,184.34375 L 634.15625,173.09375 L 623.34375,172.65625 z M 442.09375,197.25 L 434.70537,296.66074 L 448.86162,291.70088 L 457.97774,225.88838 L 442.09375,197.25 z M 221.46875,236 L 229.15625,263.28125 L 271.25,310.375 L 271.25,296.40625 L 221.46875,236 z M 236.03125,240.15625 L 236.25,246.21875 L 271.25,287.65625 L 271.25,269.34375 L 256.03125,242.875 L 236.03125,240.15625 z M 460.84375,241 L 451.13838,297.83926 L 439.59375,302.65625 L 435.84375,326.40625 L 444.59375,341.84375 L 457.90625,321.84375 L 470,254.75 L 460.84375,241 z M 32.696383,254.87051 L 55.375,288.4375 L 84.848244,294.63838 L 93.09375,304.34375 L 119.03125,311.4375 L 133.45537,306.71426 L 137.28125,312 L 129.625,320.25 L 140.25,346.78125 L 104.3125,349.125 L 78.375,384.5 L 188.55351,354.73662 L 182.97763,343.55362 L 157.63388,345.91064 L 144.375,319.09375 L 164.70987,304.04912 L 157.90625,289.32138 L 32.696383,254.87051 z M 480.58926,266.99551 L 466.54463,330.22763 L 417.09375,413.09375 L 431.43301,407.91074 L 487.09375,337.65625 L 499.59375,290.15625 L 480.58926,266.99551 z M 601.25,272.25 L 583.34375,298.90625 L 632.28125,288.71875 L 625.84375,276.40625 L 601.25,272.25 z M 686.17412,290.12051 L 588.125,332.46875 L 598.96875,345.15625 L 706.62051,290.78125 L 686.17412,290.12051 z M 295.25449,307.83926 L 306.65625,327.25 L 339.59375,324.75 L 332.90625,315.15625 L 295.25449,307.83926 z M 377.5,336.84375 L 316.25,361.84375 L 337.5,373.5 L 385.40625,341.40625 L 377.5,336.84375 z "
           style="fill:url(#linearGradient3361);fill-opacity:1;fill-rule:evenodd;stroke:#ffffff;stroke-width:2.5;stroke-linecap:butt;stroke-linejoin:miter;stroke-miterlimit:4;stroke-dasharray:none;stroke-opacity:1"
           id="path3305" />
        <g
           style="display:inline"
           id="g3211">
          <path
             d="M 319.96875,167.9375 C 314.57655,172.33824 309.18819,176.74317 301.6875,178.84375 C 301.89451,176.05367 295.68378,174.09318 290.94644,172.0625 L 290.95982,175.97991 L 288.16074,173.38394 L 285.12722,176.33481 L 275.32593,176.72097 C 287.54392,170.26762 263.79004,169.68493 256.48218,168.75222 C 259.91357,170.9496 263.28285,173.23394 265.75,176.78125 L 242.55578,176.62056 L 243.50444,179.64959 L 259.13394,179.65408 L 261.9375,188.5625 L 241,188.5625 L 241.59375,191.21875 L 267.21875,191.5 L 267.23662,195.85047 L 241.3125,195.9375 L 241.75444,198.22547 L 263.3281,198.42857 C 258.16144,210.55482 245.82483,212.91709 236.06916,215.75227 C 244.78254,217.31954 251.74364,221.06554 267.66519,207.70088 L 267.67856,216.84375 C 267.76407,218.00981 268.4137,218.48956 269.28125,218.3125 L 275.85491,218.33037 C 276.69715,218.29506 277.4522,218.1028 277.32815,216.32815 L 277.54463,197.76565 L 289.77459,197.71875 C 290.12094,195.47492 288.21411,193.68173 286.6875,191.8125 C 284.59119,193.1875 282.97429,194.5625 282.25,195.9375 L 277.46209,195.9375 C 278.45811,191.5332 275.49514,191.36902 273.64959,191.21875 L 291.09375,191.5 L 289.625,205.65625 L 278.92708,200.38542 L 279,203.59375 L 286.09375,211.84375 C 285.7351,214.29464 283.22258,216.73663 281.73889,218.625 C 284.20638,218.07358 287.06997,216.68788 288.4375,215.09375 L 287.99556,218.17407 C 291.54059,217.93675 300.60318,206.76113 300.23662,190.03125 L 313.63833,190.03125 L 313.63833,215.65625 C 313.55556,216.82252 313.4779,218.35324 315.25,218.3125 L 323.21875,218.3125 C 324.63662,218.57105 324.77011,217.11709 324.6875,215.375 L 324.6875,187.96875 L 300.12795,187.74778 L 300.23212,184.08111 C 312.71829,183.1846 318.70239,179.3326 327.9375,176.95833 L 319.96875,167.9375 z M 283.58037,179.5156 L 291.15847,179.72319 L 291.17634,184.94422 C 290.86636,186.42648 288.57749,188.00732 287.4889,187.96431 L 277.08931,188.28125 C 280.2335,186.82668 288.23451,186.21174 288.44723,183.16889 C 288.54232,181.80868 283.58037,179.5156 283.58037,179.5156 z M 261.70759,179.79685 L 280.32588,179.79241 C 277.72397,183.96878 271.3737,188.44791 268.31922,188.5625 L 268.40625,186.78125 C 268.40625,186.78125 270.39506,187.11747 269.43311,184.73667 C 268.37691,182.12258 265.33771,181.62573 261.70759,179.79685 z "
             style="fill:#000000;fill-opacity:1;fill-rule:evenodd;stroke:#ffffff;stroke-width:1.60000002;stroke-linecap:butt;stroke-linejoin:miter;stroke-miterlimit:4;stroke-dasharray:none;stroke-opacity:1"
             id="path2185" />
          <path
             d="M 360.58503,167.78125 C 360.83701,168.55838 361.11071,169.81968 361.06214,170.59375 L 361.06214,185.5 L 350.875,185.5 L 350.875,174.3493 C 355.80099,170.07221 343.106,168.73032 338.99971,167.875 C 339.34521,169.42465 339.65625,169.37205 339.65625,171.25 L 339.65625,185.5 L 329.83937,185.5 C 327.74704,185.43181 327.54678,185.77118 327.32681,186.16413 L 326.10163,188.6875 C 325.74101,189.54595 325.82964,190.12091 327.65888,190.03505 L 333.52108,190.03505 C 334.24358,190.02531 334.72408,189.51703 335.13321,188.97037 C 335.51133,188.46514 335.73752,187.84056 336.72294,187.8125 L 339.65625,187.8125 L 339.65625,213.875 C 339.65625,215.59074 340.41418,216.98794 341.375,217.21875 C 341.67007,217.54294 342.14912,217.75 342.71875,217.75 L 396.66647,217.75 C 403.22303,217.86069 417.80401,210.56529 421.56744,205.90509 C 417.69332,203.60398 416.33337,202.43733 414.3017,201.11618 C 413.15906,202.67802 397.99186,215.90407 394.342,215.3125 L 350.6875,215.3125 C 350.80744,214.87427 350.875,214.39297 350.875,213.875 L 350.875,187.8125 L 361.06214,187.8125 L 361.06214,205.8125 C 361.06214,207.3637 361.95414,208.59375 363.06214,208.59375 L 369.96875,208.59375 C 370.81519,208.59375 371.51955,207.87941 371.8125,206.84375 L 382.4375,206.84375 C 382.56454,206.84375 382.66091,206.82678 382.78125,206.8125 C 383.06772,207.86676 383.80027,208.59375 384.65625,208.59375 L 392,208.59375 C 393.108,208.59375 393.55724,207.3637 393.55724,205.8125 L 393.55724,187.8125 L 404.78125,187.8125 C 405.94861,187.8125 406.87499,187.29148 406.875,186.65625 C 406.875,186.02102 405.9486,185.5 404.78125,185.5 L 393.55724,185.5 L 393.55724,174.24649 C 399.64203,171.02695 385.46588,168.45711 382.1104,167.55987 C 382.88412,168.99883 382.65625,169.15324 382.65625,170.70444 L 382.65625,185.5 L 371.96875,185.5 L 371.96875,174.43084 C 377.77081,171.67936 364.24965,168.76288 360.58503,167.78125 z M 371.96875,187.8125 L 382.65625,187.8125 L 382.65625,204.34375 C 382.57765,204.33782 382.51869,204.3125 382.4375,204.3125 L 371.96875,204.3125 L 371.96875,187.8125 z "
             style="opacity:1;fill:#000000;fill-opacity:1;stroke:#ffffff;stroke-width:1.60000002;stroke-linecap:butt;stroke-miterlimit:4;stroke-dasharray:none;stroke-opacity:1;display:inline"
             id="rect3165" />
          <path
             d="M 428.25,167.28125 C 424.63566,171.57785 421.41758,175.98243 414.6875,179.53125 L 411.0625,175.28125 L 400.75,184.625 C 404.79381,186.02718 410.92559,186.74539 413.34375,191.5 L 401.375,193.46875 C 403.12425,194.98652 404.0939,197.87323 406.9375,200.34375 C 409.42934,199.38371 411.91014,198.46962 414.90625,196.375 L 423.0625,196.46875 L 423.0625,215.0625 C 423.08154,216.71087 423.41001,216.93889 424.125,216.96875 L 429.5625,217 C 430.43475,217.11998 430.75226,216.54459 430.71875,215.5 L 430.90625,196.1875 L 441.61911,196.19369 C 441.84268,196.75261 442.65249,200.65341 444.58756,200.72494 C 446.12803,200.78188 452.70334,199.30073 449.65625,194 C 446.82004,189.0661 438.31249,180.59376 438.3125,180.59375 C 432.24741,185.17794 425.96369,188.91247 419.125,190.53125 L 415.53125,182.125 C 424.17069,180.37186 433.92138,180.03932 438.78125,173.53125 L 428.25,167.28125 z M 437.875,186.3125 C 438.76005,187.75169 440.41054,190.90482 441.0625,193.40625 L 425.90625,193.46875 C 429.74333,191.53352 434.03791,189.0193 437.875,186.3125 z "
             style="fill:#000000;fill-opacity:1;fill-rule:evenodd;stroke:#ffffff;stroke-width:1.60000002;stroke-linecap:butt;stroke-linejoin:miter;stroke-miterlimit:4;stroke-dasharray:none;stroke-opacity:1"
             id="path3182" />
          <path
             d="M 432.71633,201.9085 C 458.75237,206.32945 445.65285,220.62506 441.79905,213.32261 C 440.28096,210.44602 437.79289,206.71019 432.71633,201.9085 z "
             style="fill:#000000;fill-opacity:1;fill-rule:evenodd;stroke:#ffffff;stroke-width:1.60000002;stroke-linecap:butt;stroke-linejoin:miter;stroke-miterlimit:4;stroke-dasharray:none;stroke-opacity:1"
             id="path3188" />
          <path
             d="M 456.35085,216.28155 C 452.45679,216.31278 452.84439,213.19849 452.9375,209.0625 L 452.9375,190.37439 C 452.91757,189.2985 453.13898,188.29463 453.58985,187.94159 C 455.35135,186.85824 457.23239,186.01766 457.62257,185.85206 C 460.08031,187.15251 462.3611,188.11963 465.49939,187.96905 L 479.03125,187.96905 L 479.03125,174.15625 L 452.59404,174.15625 C 452.59404,174.15625 450.3436,176.98234 449.07397,176.90382 C 447.99856,176.83732 446.36774,173.3566 444.20158,171.17098 C 445.57536,171.36103 447.56847,171.5739 448.66183,171.5625 C 453.16881,171.51551 478.93811,171.5625 478.93811,171.5625 C 479.42,170.34136 481.07152,167.92785 482.13647,166.62275 C 485.0298,167.65633 495.67573,171.31298 490.57488,174.03004 L 490.4375,191.0625 C 490.43749,191.90506 489.59625,192.5625 488.53125,192.5625 L 480.96875,192.5625 C 479.90374,192.5625 479.03125,191.90506 479.03125,191.0625 L 479.03125,189.84375 L 466,189.84375 L 466,211.46663 C 466.00001,212.3092 466.98211,213.37876 468.66469,213.44745 L 484.3761,213.44745 C 485.37623,213.49761 486.2665,213.20448 486.27316,211.66033 L 486.40673,203.95898 C 488.57076,204.02767 496.70897,209.8794 496.69308,214.20728 C 496.6865,216.00094 495.09625,216.625 494.03125,216.625 L 456.35085,216.28155 z "
             style="opacity:1;fill:#000000;fill-opacity:1;stroke:#ffffff;stroke-width:1.60000002;stroke-linecap:butt;stroke-miterlimit:4;stroke-dasharray:none;stroke-opacity:1;display:inline"
             id="rect3199" />
        </g>
      </g>
    </g>
  </g>
</svg>
